<svg aria-hidden="true" style="position:absolute;width:0;height:0;overflow:hidden" xmlns="http://www.w3.org/2000/svg">
	<defs>
		<symbol id="arrow-left" viewBox="0 0 32 32">
			<path d="M5.333 16h21.333M5.333 16l8-8m-8 8 8 8" />
		</symbol>
		<symbol id="camera" viewBox="0 0 32 32">
			<path d="M16 21.333a4 4 0 0 0 0-8 4 4 0 0 0 0 8z" />
			<path d="M4 12a2.667 2.667 0 0 1 2.667-2.667H10c.736 0 1.333-.597 1.333-1.333s.597-1.333 1.333-1.333h6.667c.736 0 1.333.597 1.333 1.333s.597 1.333 1.333 1.333h3.333A2.667 2.667 0 0 1 27.999 12v10.667a2.667 2.667 0 0 1-2.667 2.667H6.665a2.667 2.667 0 0 1-2.667-2.667V12z" />
		</symbol>
		<symbol id="check-round" viewBox="0 0 32 32">
			<path d="m22.667 12-9.333 9.333-4-4m1.333 9.334h10.667a5.333 5.333 0 0 0 5.333-5.333V10.667a5.333 5.333 0 0 0-5.333-5.333H10.667a5.333 5.333 0 0 0-5.333 5.333v10.667a5.333 5.333 0 0 0 5.333 5.333z" />
		</symbol>
		<symbol id="check" viewBox="0 0 32 32">
			<path d="M26.667 9.333 12 24l-6.667-6.667" />
		</symbol>
		<symbol id="chevron-down" viewBox="0 0 32 32">
			<path d="M5.333 12 16 22.667 26.667 12" />
		</symbol>
		<symbol id="chevron-up" viewBox="0 0 32 32">
			<path d="M26.667 20 16 9.333 5.333 20" />
		</symbol>
		<symbol id="clock" viewBox="0 0 24 24" fill="none">
			<path d="M12.7578 7V12L15.7578 15M21.7578 12C21.7578 16.9706 17.7284 21 12.7578 21C7.78725 21 3.75781 16.9706 3.75781 12C3.75781 7.02944 7.78725 3 12.7578 3C17.7284 3 21.7578 7.02944 21.7578 12Z" stroke="#54ADFF" stroke-width="1.5" stroke-linecap="round" stroke-linejoin="round" />
		</symbol>
		<symbol id="cross-small" viewBox="0 0 24 24" fill="none">
			<path d="M19 5L5 19M5.00004 5L19 19" stroke="#FFC107" stroke-width="1.5" stroke-linecap="round" stroke-linejoin="round" />
		</symbol>
		<symbol id="cross" viewBox="0 0 32 32">
			<path d="M25.333 6.667 6.666 25.334m.001-18.667 18.667 18.667" />
		</symbol>
		<symbol id="edit-2" viewBox="0 0 32 32">
			<path d="m6.667 20.941-.707-.707a.997.997 0 0 0-.293.707h1zM20.941 6.667l.707-.707a1 1 0 0 0-1.414 0l.707.707zm4.392 4.392.707.707a1 1 0 0 0 0-1.414l-.707.707zM11.059 25.333v1a.997.997 0 0 0 .707-.293l-.707-.707zm-4.392 0h-1a1 1 0 0 0 1 1v-1zm8.784-1a1 1 0 0 0 0 2v-2zm9.333 2a1 1 0 0 0 0-2v2zM7.373 21.648 21.648 7.373 20.235 5.96 5.96 20.235l1.413 1.413zM20.235 7.373l4.392 4.392 1.413-1.413-4.392-4.392-1.413 1.413zm4.392 2.979L10.352 24.627l1.413 1.413L26.04 11.765l-1.413-1.413zM11.059 24.333H6.667v2h4.392v-2zm-3.392 1v-4.392h-2v4.392h2zm9.273-14.666 4.392 4.393 1.413-1.413-4.391-4.393-1.415 1.413zm-1.489 15.666h9.333v-2h-9.333v2z" />
		</symbol>
		<symbol id="eye-closed" viewBox="0 0 24 24" fill="none">
			<path d="M9.76406 5.29519C10.4664 5.10724 11.2123 5 12 5C18.3636 5 22 12 22 12C22 12 21.171 13.5958 19.612 15.2635M4.34912 8.77822C2.8152 10.4307 2 12 2 12C2 12 5.63636 19 12 19C12.8021 19 13.5608 18.8888 14.2744 18.6944M11.5 14.9585C10.4158 14.7766 9.52883 14.0132 9.17071 13M12.5 9.04148C13.7563 9.25224 14.7478 10.2437 14.9585 11.5M3 3L21 21" stroke="#54ADFF" stroke-width="1.5" stroke-linecap="round" stroke-linejoin="round" />
		</symbol>
		<symbol id="eye-open" viewBox="0 0 24 24 " fill="none">
			<path d="M2 12C2 12 5.63636 5 12 5C18.3636 5 22 12 22 12C22 12 18.3636 19 12 19C5.63636 19 2 12 2 12Z" stroke="#54ADFF" stroke-width="1.5" stroke-linecap="round" stroke-linejoin="round" />
			<path d="M12 15C13.6569 15 15 13.6569 15 12C15 10.3431 13.6569 9 12 9C10.3431 9 9 10.3431 9 12C9 13.6569 10.3431 15 12 15Z" stroke="#54ADFF" stroke-width="1.5" stroke-linecap="round" stroke-linejoin="round" />
		</symbol>
		<symbol id="female" viewBox="0 0 24 24" fill="none">
			<path d="M12.7578 13C15.5192 13 17.7578 10.7614 17.7578 8C17.7578 5.23858 15.5192 3 12.7578 3C9.99639 3 7.75781 5.23858 7.75781 8C7.75781 10.7614 9.99639 13 12.7578 13ZM12.7578 13L12.7578 21M9.75781 18L15.7578 18" stroke="#54ADFF" stroke-width="1.5" stroke-linecap="round" stroke-linejoin="round" />
		</symbol>
		<symbol id="filters-2" viewBox="0 0 32 32">
			<path d="M18.667 6.667a2.667 2.667 0 1 0-5.334 0m5.334 0a2.667 2.667 0 1 1-5.334 0m5.334 0h8m-13.334 0h-8m16 9.333a2.667 2.667 0 1 0 5.334 0 2.667 2.667 0 1 0-5.334 0zm0 0h-16m5.334 9.333a2.667 2.667 0 1 0-5.334 0 2.667 2.667 0 1 0 5.334 0zm0 0h16" />
		</symbol>
		<symbol id="filters-3" viewBox="0 0 32 32">
			<path d="M6.09 5.76 12.49 16v7.68l7.68 3.84V16l6.4-10.24H6.09z" />
		</symbol>
		<symbol id="heart" viewBox="0 0 24 24">
			 <path d="M4.3314 12.0474L12 20L19.6686 12.0474C20.5211 11.1633 21 9.96429 21 8.71405C21 6.11055 18.9648 4 16.4543 4C15.2487 4 14.0925 4.49666 13.24 5.38071L12 6.66667L10.76 5.38071C9.90749 4.49666 8.75128 4 7.54569 4C5.03517 4 3 6.11055 3 8.71405C3 9.96429 3.47892 11.1633 4.3314 12.0474Z" stroke="#54ADFF" stroke-width="1.5" stroke-linecap="round" stroke-linejoin="round"/>
		</symbol>
		<symbol id="heart-1" viewBox="0 0 24 24">
			 <path d="M4.3314 12.0474L12 20L19.6686 12.0474C20.5211 11.1633 21 9.96429 21 8.71405C21 6.11055 18.9648 4 16.4543 4C15.2487 4 14.0925 4.49666 13.24 5.38071L12 6.66667L10.76 5.38071C9.90749 4.49666 8.75128 4 7.54569 4C5.03517 4 3 6.11055 3 8.71405C3 9.96429 3.47892 11.1633 4.3314 12.0474Z" stroke="#FEF9F9" stroke-width="1.5" stroke-linecap="round" stroke-linejoin="round"/>
		</symbol>
		<symbol id="location-1" viewBox="0 0 24 24" fill="none">
			<path d="M20.7578 11C20.7578 15.4183 17.1761 19 12.7578 21C8.33953 19 4.75781 15.4183 4.75781 11C4.75781 6.58172 8.33953 3 12.7578 3C17.1761 3 20.7578 6.58172 20.7578 11Z" stroke="#54ADFF" stroke-width="1.5" stroke-linecap="round" stroke-linejoin="round" />
			<path d="M15.7578 11C15.7578 12.6569 14.4147 14 12.7578 14C11.101 14 9.75781 12.6569 9.75781 11C9.75781 9.34315 11.101 8 12.7578 8C14.4147 8 15.7578 9.34315 15.7578 11Z" stroke="#54ADFF" stroke-width="1.5" stroke-linecap="round" stroke-linejoin="round" />
		</symbol>
		<symbol id="logo" viewBox="0 0 32 32">
			<path d="M14.656 10.217c2.442 1.139 5.486-.198 6.784-2.981l.067-.142c1.258-2.698 2.001-4.288-.401-5.408a9.492 9.492 0 0 0-1.826-.6l-.066-.012-.027-.029-.064.01c-2.586-.538-5.526-.138-6.545 2.049-1.297 2.784-.367 5.975 2.077 7.113zm-.527-5.723c.755-.33 1.801-.516 3.136-.25 1.149.23 2.084.211 2.803.081a4.193 4.193 0 0 1-.407 2.112l.011-.025c-.842 1.809-2.723 2.723-4.191 2.038-1.317-.614-1.861-2.308-1.352-3.955zM8.556 9.221c-.86.877-1.965 1.317-3.11 1.236-.374-.026-1.201-.438-1.729-.701-.137-.069-.253-.128-.338-.166-1.605-.749-1.93-2.077-1.788-4.16C1.774 2.815 3.796.818 6.1.978c1.079.073 1.655.858 2.328 1.773.251.346.36.492.47.637l-.137-.189c.635.845 1.271 1.691 1.194 2.807-.086 1.238-.582 2.38-1.399 3.215zM5.965 2.924c-1.233-.086-2.322 1.1-2.429 2.641-.105 1.541.812 2.863 2.043 2.948.567.038 1.129-.193 1.581-.655.493-.504.794-1.21.849-1.984.052-.776-.148-1.516-.568-2.083a2.208 2.208 0 0 0-.819-.693l-.013-.006a1.787 1.787 0 0 0-.637-.167h-.006zm10.712 9.21.049.021a8.036 8.036 0 0 0-3.475-.785 7.991 7.991 0 0 0-4.334 1.263l-5.669 3.59A5.133 5.133 0 0 0 1.226 18.7l.012-.034a5.088 5.088 0 0 0-.357 1.877c0 .489.069.962.189 1.374l.009.036a5.11 5.11 0 0 0 1.785 2.639l-.011-.008A5.076 5.076 0 0 0 5.9 25.671l.072.003h.016c2.882.09 5.459 1.39 7.25 3.42l.005.006a5.117 5.117 0 0 0 2.773 1.626l-.034-.006c.359.08.733.123 1.117.123.769 0 1.498-.17 2.12-.462l.032-.013a5.134 5.134 0 0 0 2.334-2.174l-.013.025a5.065 5.065 0 0 0 .607-3.192l-.891-6.627-.005-.042c-.374-2.75-2.133-5.06-4.601-6.224zm3.432 12.162c-3.068-1.219-7.599-2.12-7.969 1.313a11.922 11.922 0 0 0-6.182-1.886h-.015l-.049-.001a3.164 3.164 0 0 1-2.941-2.303l-.005-.022a3.157 3.157 0 0 1 1.085-3.34l.007-.005c.724-.512 1.919-.732 4.266.274 3.584 1.536 3.626-.64 2.56-1.92 1.28 0 3.968-.384 4.48-1.92.097-.293.119-.544.084-.759 2.092.802 3.612 2.66 3.917 4.904l.004.032.758 5.635zm4.166-8.485a3.968 3.968 0 0 1-1.057-.719l.002.002c-1.798-1.7-1.69-4.746.243-6.792.915-.969 2.107-1.578 3.356-1.714.86-.093 1.053.219 1.339.685.148.242.323.525.627.812.256.243.595.48.947.726.874.612 1.827 1.276 1.779 2.213-.065 1.254-.607 2.478-1.523 3.447-1.591 1.684-3.932 2.172-5.714 1.34zm2.756-7.284c-.788.086-1.551.481-2.15 1.114-1.193 1.265-1.467 3.694-.449 4.655 1.018.963 2.646.623 3.84-.64.598-.632 1.251-1.943 1.293-2.734.038-.733-.201-1.382-.672-1.827-.471-.445-1.133-.648-1.861-.568zm4.051 10.635c-1.376-2.116-3.834-2.086-6.136-.836-2.301 1.251-2.981 3.222-1.88 5.252a3.814 3.814 0 0 0 1.768 1.642c1.293.602 2.947.57 4.411-.224 2.301-1.251 2.94-3.804 1.838-5.834zm-2.768 4.119c-1.359.737-2.944.453-3.533-.634-.431-.795-.211-1.805.472-2.577 1.38-.236 3.126-.451 4.265-.375.07.086.134.179.188.282.589 1.084-.037 2.568-1.393 3.304z" />
		</symbol>
		<symbol id="male" viewBox="0 0 24 24" fill="none">
			<path d="M12.7578 11C9.99639 11 7.75781 13.2386 7.75781 16C7.75781 18.7614 9.99639 21 12.7578 21C15.5192 21 17.7578 18.7614 17.7578 16C17.7578 13.2386 15.5192 11 12.7578 11ZM12.7578 11V3M12.7578 3L16.7578 7M12.7578 3L8.75781 7" stroke="#54ADFF" stroke-width="1.5" stroke-linecap="round" stroke-linejoin="round" />
		</symbol>
		<symbol id="menu-hamburger" viewBox="0 0 24 24">
			<path d="M4 7H20M4 12H20M4 17H20" fill="none" stroke="#FFC107" stroke-width="1.5" stroke-linecap="round" stroke-linejoin="round" />
		</symbol>
		<symbol id="pawprint-1" viewBox="0 0 32 32">
			<path d="M20.481 19.149a7.782 7.782 0 0 0-4.382-6.004l-.047-.02a7.649 7.649 0 0 0-3.294-.734 7.73 7.73 0 0 0-4.198 1.232l.031-.018-5.432 3.439a4.92 4.92 0 0 0-1.952 2.36l-.012.033a4.816 4.816 0 0 0-.332 1.773c0 .47.066.925.19 1.355l-.008-.035a4.922 4.922 0 0 0 1.714 2.565l.011.008a4.896 4.896 0 0 0 2.919 1.037l.069.001a9.678 9.678 0 0 1 6.978 3.279l.009.011a4.91 4.91 0 0 0 2.637 1.563l.033.006a4.874 4.874 0 0 0 3.11-.346l-.03.013a4.94 4.94 0 0 0 2.261-2.078l.013-.025a4.895 4.895 0 0 0 .573-3.044l-.859-6.372zm-2.765 9.812a3.041 3.041 0 0 1-3.563-.767 11.609 11.609 0 0 0-3.73-2.818l-.07-.03a11.357 11.357 0 0 0-4.609-1.08H5.73l-.047-.001a3.043 3.043 0 0 1-2.827-2.215l-.005-.021a3.037 3.037 0 0 1 1.297-3.392l.012-.007 5.433-3.44a5.832 5.832 0 0 1 3.164-.922 5.87 5.87 0 0 1 2.537.573l-.036-.015c1.801.85 3.086 2.535 3.359 4.543l.003.031.857 6.373a3.042 3.042 0 0 1-1.745 3.182l-.019.008zM6.295 12.527c1.104.077 2.165-.345 2.992-1.189.787-.803 1.264-1.901 1.347-3.091.08-1.189-.243-2.343-.909-3.247-.703-.948-1.696-1.513-2.799-1.589-2.216-.153-4.16 1.767-4.336 4.281-.137 2.003.891 3.787 2.433 4.507a3.61 3.61 0 0 0 1.272.328zM4.461 7.82c.103-1.48 1.151-2.62 2.336-2.537.213.013.421.069.617.16.303.141.576.369.8.673.404.545.597 1.256.547 2.001-.052.747-.341 1.423-.816 1.908-.435.444-.975.668-1.52.631-1.185-.081-2.067-1.353-1.964-2.835zm9.727 3.709c2.349 1.095 5.276-.191 6.524-2.867 1.248-2.677.352-5.747-1.997-6.841-2.348-1.096-5.275.191-6.523 2.867-1.248 2.677-.352 5.747 1.996 6.84zm3.735-8.008c1.412.657 1.9 2.608 1.089 4.348-.811 1.739-2.62 2.617-4.031 1.96-1.412-.659-1.9-2.609-1.089-4.347.811-1.74 2.619-2.62 4.031-1.961zm3.069 12.631c.305.288.647.517 1.013.689 1.713.799 3.965.331 5.496-1.289.88-.932 1.4-2.109 1.463-3.315.067-1.263-.371-2.405-1.231-3.217-.859-.811-2.024-1.184-3.28-1.047-1.201.131-2.347.715-3.228 1.648-1.859 1.965-1.963 4.896-.233 6.531zm1.596-5.243c.576-.609 1.309-.989 2.067-1.072.701-.076 1.337.119 1.791.547.453.427.683 1.052.645 1.756-.04.76-.377 1.515-.953 2.124-1.147 1.213-2.879 1.451-3.857.525-.977-.925-.84-2.667.308-3.88zm7.639 8.86c-1.063-1.953-3.727-2.564-5.941-1.363-2.213 1.203-3.151 3.769-2.092 5.72a3.685 3.685 0 0 0 1.699 1.58c1.244.58 2.833.548 4.241-.216 2.213-1.203 3.152-3.769 2.093-5.721zm-2.987 4.074c-1.307.708-2.832.435-3.397-.609-.567-1.044.035-2.469 1.339-3.179.867-.471 1.829-.507 2.545-.173.361.168.661.432.852.783.565 1.044-.036 2.469-1.34 3.179z" />
		</symbol>
		<symbol id="plus-small" viewBox="0 0 32 32">
			<path d="M16 9.333v13.333M9.333 16h13.333" />
		</symbol>
		<symbol id="plus" viewBox="0 0 32 32">
			<path d="M16 26.667V16m0 0V5.333M16 16h10.667M16 16H5.333" />
		</symbol>
		<symbol id="round" viewBox="0 0 32 32">
			<path d="M5.333 10.667a5.333 5.333 0 0 1 5.333-5.333h10.667a5.333 5.333 0 0 1 5.333 5.333v10.667a5.333 5.333 0 0 1-5.333 5.333H10.666a5.333 5.333 0 0 1-5.333-5.333V10.667z" />
		</symbol>
		<symbol id="search" viewBox="0 0 32 32">
			<path d="M25.96 27.373a1 1 0 1 0 1.414-1.413l-.001-.001-1.413 1.413zM23 14a9 9 0 0 1-9 9v2c6.075 0 11-4.925 11-11h-2zm-9 9a9 9 0 0 1-9-9H3c0 6.075 4.925 11 11 11v-2zm-9-9a9 9 0 0 1 9-9V3C7.925 3 3 7.925 3 14h2zm9-9a9 9 0 0 1 9 9h2c0-6.075-4.925-11-11-11v2zm13.373 20.96-5.583-5.584-1.413 1.413 5.583 5.584 1.413-1.413z" />
		</symbol>
		<symbol id="trash-2" viewBox="0 0 32 32">
			<path d="M24 8v16a2.667 2.667 0 0 1-2.667 2.667H10.666A2.667 2.667 0 0 1 7.999 24V8M20 8V6.667A2.667 2.667 0 0 0 17.333 4h-2.667a2.667 2.667 0 0 0-2.667 2.667V8M5.333 8h21.333m-13.333 5.333v8m5.334-8v8" />
		</symbol>
		<symbol id="user-1" viewBox="0 0 28 28" fill="none">
			<path d="M22 24V22C22 19.7909 20.2091 18 18 18H10C7.79086 18 6 19.7909 6 22V24M18 10C18 12.2091 16.2091 14 14 14C11.7909 14 10 12.2091 10 10C10 7.79086 11.7909 6 14 6C16.2091 6 18 7.79086 18 10Z" stroke="#FFC107" stroke-width="1.5" stroke-linecap="round" stroke-linejoin="round" />
			<rect x="0.75" y="0.75" width="26.5" height="26.5" rx="13.25" stroke="#FFC107" stroke-width="1.5" />
		</symbol>
		<symbol id="logout" viewBox="0 0 32 32">
			<path fill="none" stroke="#fef9f9" stroke-linejoin="round" stroke-linecap="round" stroke-miterlimit="4" stroke-width="2" d="M18.667 5.333h5.333c1.473 0 2.667 1.194 2.667 2.667v16c0 1.473-1.194 2.667-2.667 2.667h-5.333M4 16h16M4 16l5.333-5.333M4 16l5.333 5.333" />
		</symbol>
	</defs>
</svg>
